<svg height="70" width="200" xmlns="http://www.w3.org/2000/svg" xmlns:xlink="http://www.w3.org/1999/xlink" version="1.1" x="0px" y="0px" viewBox="0 0 512 512" style="enable-background:new 0 0 512 512;" xml:space="preserve">
<style type="text/css">
	.st0{fill:#E1902B;}
	.st1{fill:#3D2A3D;}
	.st2{fill:#E7AD84;}
	.st3{fill:#2961A5;}
	.st4{fill:#FFD66C;}
	.st5{fill:#A18FA1;}
	.st6{fill:#DB4646;}
	.st7{fill:#78BEDE;}
	.st8{fill:#43B06D;}
	.st9{fill:#9EC853;}
	.st10{fill:#217D44;}
	.st11{fill:#DBDBDB;}
	.st12{fill:#FFFFFF;}
	.st13{fill:#C41E1E;}
	.st14{fill:#B9BDC2;}
	.st15{fill:#856685;}
	.st16{fill:#E8E8E8;}
	.st17{fill:#BDBDBD;}
	.st18{fill:#839797;}
	.st19{fill:#D9D9D9;}
	.st20{fill:#F0F0F0;}
	.st21{fill:#BFBFBF;}
	.st22{fill:#706470;}
	.st23{fill:#4B1E4C;}
	.st24{fill:#614F61;}
	.st25{fill:#A37352;}
	.st26{fill:#7A6C7A;}
	.st27{fill:#919191;}
	.st28{fill:#6E6E6E;}
	.st29{fill:#B8B8B8;}
	.st30{fill:#FF826E;}
	.st31{fill:#7D5737;}
	.st32{fill:#2E1B17;}
	.st33{fill:#483324;}
	.st34{fill:#9E9E9E;}
	.st35{fill:#7D6F7D;}
	.st36{fill:#6B4A6B;}
	.st37{fill:#4A80C2;}
	.st38{fill:#B34B0F;}
	.st39{fill:#FFC682;}
	.st40{clip-path:url(#SVGID_2_);fill:#DBDBDB;}
	.st41{fill:#FFDBC5;}
	.st42{fill:#E3E3E3;}
	.st43{clip-path:url(#SVGID_4_);}
	.st44{clip-path:url(#SVGID_6_);fill:#DBDBDB;}
	.st45{clip-path:url(#SVGID_8_);}
	.st46{fill:#E8B494;}
	.st47{fill:#F2D7C4;}
	.st48{fill:#5D5660;}
	.st49{fill:#3B2D3F;}
	.st50{fill:#756275;}
	.st51{fill:#E1622B;}
	.st52{fill:#F0E9E9;}
	.st53{fill:#4D917B;}
	.st54{fill:#C4C4C4;}
	.st55{fill:#14855A;}
	.st56{fill:#C21B1B;}
</style>
<g id="Layer_9">
	<path class="st1" d="M512,256c0,141.4-114.6,256-256,256C114.6,512,0,397.4,0,256C0,114.6,114.6,0,256,0C397.4,0,512,114.6,512,256   z"/>
</g>
<g id="Layer_7">
	<g>
		<path class="st13" d="M316.7,124.1c-17.4-16.4-47.2-11.4-69.1-11.4c-9.9,0-19.9-0.7-29.4,2.6c-17.4,6.1-28.1,22.8-28.7,40.9    c-0.7,22.5-3.7,49.4,14.2,66.3c17.4,16.4,47.2,11.4,69.1,11.4c9.9,0,19.9,0.7,29.4-2.6c17-6,27.6-22,28.6-39.6    c0.1-0.4,0.1-0.9,0.1-1.3C330.9,167.5,335.1,141.4,316.7,124.1z M286,215c-10.4,0-20.8,0-31.2,0c-8.3,0-17.5,1.2-25.8-0.1    c-14.7-2.3-21.1-14.9-21.1-28.4c0-10,0-20.1,0-30.1c0-14.3,11.9-24.9,25.8-24.9c18.5,0,37.2-0.5,55.7,0.1    c29,0.9,22.7,40,22.7,58.8C311.8,204.9,300.5,215,286,215z"/>
		<g>
			<g>
				<path class="st6" d="M428,363.7c0,15.1-12.2,27.3-27.3,27.3H119.3c-15.1,0-27.3-12.2-27.3-27.3V185.3      c0-15.1,12.2-27.3,27.3-27.3h281.4c15.1,0,27.3,12.2,27.3,27.3V363.7z"/>
			</g>
		</g>
		<g>
			<path class="st12" d="M300,355.8c0,12.2-9.9,22.2-22.2,22.2h-35.6c-12.2,0-22.2-9.9-22.2-22.2V196.2c0-12.2,9.9-22.2,22.2-22.2     h35.6c12.2,0,22.2,9.9,22.2,22.2V355.8z"/>
			<path class="st12" d="M362,293.8c0,12.2-9.9,22.2-22.2,22.2H180.2c-12.2,0-22.2-9.9-22.2-22.2v-35.7c0-12.2,9.9-22.2,22.2-22.2     h159.7c12.2,0,22.2,9.9,22.2,22.2V293.8z"/>
		</g>
		<g>
			<path class="st1" d="M291,294.5c0,8-6.5,14.5-14.5,14.5h-31c-8,0-14.5-6.5-14.5-14.5l0,0c0-8,6.5-14.5,14.5-14.5h31     C284.5,280,291,286.5,291,294.5L291,294.5z"/>
			<path class="st1" d="M275.1,283.3c0,10.3-6.7,18.7-15,18.7c-8.3,0-15-8.4-15-18.7s6.7-18.7,15-18.7     C268.4,264.6,275.1,273,275.1,283.3z"/>
			<g>
				
					<ellipse transform="matrix(8.473123e-03 -1 1 8.473123e-03 19.3299 526.9904)" class="st1" cx="275.4" cy="253.7" rx="11.6" ry="11.5"/>
				<path class="st1" d="M256.4,253.7c0,6.4-5.2,11.6-11.5,11.6s-11.6-5.2-11.6-11.6c0-6.4,5.2-11.6,11.6-11.6      S256.4,247.4,256.4,253.7z"/>
			</g>
			<g>
				<path class="st1" d="M234.3,273.6c0,5.3-4.3,9.7-9.7,9.7c-5.3,0-9.7-4.3-9.7-9.7c0-5.3,4.3-9.7,9.7-9.7      C229.9,264,234.3,268.3,234.3,273.6z"/>
				<path class="st1" d="M305.3,273.6c0,5.3-4.3,9.7-9.7,9.7s-9.7-4.3-9.7-9.7c0-5.3,4.3-9.7,9.7-9.7S305.3,268.3,305.3,273.6z"/>
			</g>
		</g>
	</g>
</g>
</svg>